<svg width="80" height="80" viewBox="0 0 80 80" fill="none" xmlns="http://www.w3.org/2000/svg">
<circle cx="40" cy="40" r="39.75" fill="#C8626D" fill-opacity="0.79" stroke="black" stroke-width="0.5"/>
<path d="M8.28 60.12C6.22667 60.12 5.2 59.5467 5.2 58.4C5.2 57.12 6.05333 56.48 7.76 56.48C8.56 56.48 10.4667 56.9467 13.48 57.88C14.2 57.2667 14.9067 56.52 15.6 55.64C16.32 54.7333 17 53.6667 17.64 52.44C18.1733 51.4267 18.68 50.4 19.16 49.36C19.64 48.2933 20.1333 47.24 20.64 46.2C22.9067 41.5333 25.5067 38.2 28.44 36.2C27.6133 35.96 26.6667 35.7733 25.6 35.64C24.56 35.5067 23.4133 35.44 22.16 35.44C20.7733 35.44 19.4667 35.56 18.24 35.8C17.0133 36.0133 15.8533 36.3467 14.76 36.8C12.1733 37.84 10.2533 39.4 9 41.48C8.22667 42.7867 7.84 44.08 7.84 45.36C7.84 46.72 8.26667 47.8533 9.12 48.76C9.97333 49.6933 11.08 50.16 12.44 50.16C13.96 50.16 15.3067 49.6133 16.48 48.52C17.6533 47.4 18.24 46.0933 18.24 44.6C18.24 43.56 17.96 42.7067 17.4 42.04C16.8133 41.3467 16 41 14.96 41C14.1867 41 13.4933 41.24 12.88 41.72C12.2667 42.2533 11.96 42.92 11.96 43.72C11.96 44.36 12.3067 44.68 13 44.68C13.0533 44.68 13.0933 44.64 13.12 44.56C13.2 44.48 13.2667 44.44 13.32 44.44C13.3733 44.4667 13.4 44.5067 13.4 44.56C13.4 44.8267 13.2533 44.96 12.96 44.96C12.0533 44.96 11.6 44.5333 11.6 43.68C11.6 42.8267 11.9867 42.08 12.76 41.44C13.5067 40.8267 14.3067 40.52 15.16 40.52C16.3067 40.52 17.24 40.8933 17.96 41.64C18.7067 42.3867 19.08 43.3333 19.08 44.48C19.08 46.24 18.3867 47.72 17 48.92C15.6933 50.04 14.1467 50.6 12.36 50.6C10.68 50.6 9.30667 50.1067 8.24 49.12C7.09333 48.0533 6.52 46.7333 6.52 45.16C6.52 44.04 6.8 42.9467 7.36 41.88C8.58667 39.4533 10.7467 37.64 13.84 36.44C16.3733 35.4533 19.2533 34.96 22.48 34.96C25.0133 34.96 27.24 35.2267 29.16 35.76C30.0133 35.28 30.8267 34.92 31.6 34.68C32.3733 34.4133 33.1333 34.28 33.88 34.28C34.0933 34.28 34.2 34.3067 34.2 34.36C34.2 34.44 34.16 34.48 34.08 34.48C33.9733 34.48 33.8267 34.4933 33.64 34.52C33.48 34.52 33.2933 34.5333 33.08 34.56C31.9067 34.6667 30.76 35.12 29.64 35.92C32.44 36.8267 33.84 38.36 33.84 40.52C33.84 40.76 33.8133 41 33.76 41.24C33.7333 41.4533 33.6933 41.6667 33.64 41.88C33.32 43.24 32.04 44.3467 29.8 45.2C28.2 45.76 26.4 46.12 24.4 46.28H25.64C30.36 46.28 32.72 47.8933 32.72 51.12C32.72 52.96 32.0133 54.5867 30.6 56C29.3733 57.2267 27.8 58.1467 25.88 58.76C25.1067 59.0267 24.2933 59.2133 23.44 59.32C22.5867 59.4533 21.7067 59.52 20.8 59.52C19.7067 59.52 18.5733 59.4267 17.4 59.24C16.2533 59.0533 15.08 58.76 13.88 58.36C11.7467 59.5333 9.88 60.12 8.28 60.12ZM22.64 46.16C28.2933 45.6267 31.3733 44.1867 31.88 41.84C31.9867 41.3333 32.04 40.8267 32.04 40.32C32.04 38.4533 31.04 37.1467 29.04 36.4C26.72 38.3467 24.5867 41.6 22.64 46.16ZM19.36 58.96C22.1067 58.96 24.5467 58.3067 26.68 57C29.2667 55.48 30.56 53.4667 30.56 50.96C30.56 47.9467 28.36 46.44 23.96 46.44C23.6933 46.44 23.44 46.4533 23.2 46.48C22.96 46.48 22.7333 46.4933 22.52 46.52C21.2133 49.5867 20.1733 51.76 19.4 53.04C18.0667 55.1733 16.36 56.8667 14.28 58.12C16.12 58.68 17.8133 58.96 19.36 58.96ZM8.56 59.8C10.16 59.8 11.6933 59.2533 13.16 58.16C12.0133 57.76 11 57.4667 10.12 57.28C9.26667 57.0933 8.57333 57 8.04 57C6.41333 57 5.6 57.48 5.6 58.44C5.6 59.3467 6.58667 59.8 8.56 59.8ZM38.7244 61.24C37.951 61.24 37.4177 61.2 37.1244 61.12C36.351 60.9067 35.9644 60.6533 35.9644 60.36C35.9644 60.2 36.1377 60.12 36.4844 60.12C36.6444 60.12 36.8444 60.1333 37.0844 60.16C37.351 60.2133 37.6444 60.2667 37.9644 60.32C38.6577 60.48 39.1777 60.56 39.5244 60.56C41.4177 60.56 43.191 59.6933 44.8444 57.96C45.4577 57.2933 46.0844 56.4933 46.7244 55.56C47.3644 54.6 47.9777 53.5067 48.5644 52.28C49.0177 51.3467 49.4577 50.4 49.8844 49.44C50.3377 48.48 50.7777 47.52 51.2044 46.56C54.3777 40 57.5777 35.7467 60.8044 33.8C58.8844 33.16 56.7244 32.84 54.3244 32.84C51.5777 32.84 49.0977 33.28 46.8844 34.16C44.2977 35.2 42.391 36.76 41.1644 38.84C40.391 40.1467 40.0044 41.4533 40.0044 42.76C40.0044 44.12 40.4177 45.2533 41.2444 46.16C42.1244 47.0667 43.2444 47.52 44.6044 47.52C46.1244 47.52 47.471 46.9733 48.6444 45.88C49.791 44.8133 50.3644 43.5067 50.3644 41.96C50.3644 40.92 50.0844 40.0667 49.5244 39.4C48.911 38.7067 48.111 38.36 47.1244 38.36C46.2977 38.36 45.6044 38.6 45.0444 39.08C44.4044 39.64 44.0844 40.3067 44.0844 41.08C44.0844 41.72 44.431 42.04 45.1244 42.04C45.151 42.04 45.191 42.0133 45.2444 41.96C45.271 41.9067 45.3377 41.8533 45.4444 41.8C45.5244 41.8267 45.5644 41.88 45.5644 41.96C45.5644 42.2267 45.4044 42.36 45.0844 42.36C44.2044 42.36 43.7644 41.92 43.7644 41.04C43.7644 40.1867 44.1377 39.44 44.8844 38.8C45.631 38.1867 46.431 37.88 47.2844 37.88C48.3777 37.88 49.3244 38.2533 50.1244 39C50.8444 39.7467 51.2044 40.6933 51.2044 41.84C51.2044 43.6 50.5244 45.08 49.1644 46.28C47.8044 47.4267 46.2444 48 44.4844 48C42.8844 48 41.511 47.4933 40.3644 46.48C39.2444 45.4667 38.6844 44.1467 38.6844 42.52C38.6844 41.4267 38.951 40.3467 39.4844 39.28C40.6844 36.8533 42.8444 35.0267 45.9644 33.8C48.4977 32.8133 51.3644 32.32 54.5644 32.32C57.151 32.32 59.5244 32.64 61.6844 33.28C63.0177 32.6133 64.391 32.28 65.8044 32.28C66.471 32.28 67.1244 32.3867 67.7644 32.6C68.5377 32.92 68.9244 33.3867 68.9244 34C68.9244 34.6667 68.7377 35 68.3644 35C68.2577 35 68.2044 34.76 68.2044 34.28C68.2044 33.2933 67.3644 32.8 65.6844 32.8C64.6444 32.8 63.5644 33.04 62.4444 33.52C66.7377 35.0133 68.8844 37.4533 68.8844 40.84C68.8844 43.8267 67.5644 46.2 64.9244 47.96C62.6577 49.5067 59.951 50.28 56.8044 50.28C56.5377 50.28 56.2444 50.2667 55.9244 50.24C55.6044 50.2133 55.2444 50.1733 54.8444 50.12C53.7777 50.0133 53.2444 49.8533 53.2444 49.64C53.2444 49.4267 53.311 49.32 53.4444 49.32H53.4844H53.4444C53.4444 49.3467 53.631 49.4 54.0044 49.48C54.351 49.5867 54.8177 49.64 55.4044 49.64C58.0977 49.64 60.631 48.8667 63.0044 47.32C65.6177 45.56 66.9244 43.3867 66.9244 40.8C66.9244 37.7333 65.111 35.48 61.4844 34.04C58.6577 35.7733 56.031 39.7067 53.6044 45.84C53.391 46.4267 53.1244 47.16 52.8044 48.04C52.511 48.8933 52.111 49.8933 51.6044 51.04C50.4844 53.6267 49.0044 55.7467 47.1644 57.4C45.3244 59.0267 43.1644 60.2133 40.6844 60.96C40.1244 61.1467 39.471 61.24 38.7244 61.24Z" fill="black"/>
</svg>
